<svg viewBox="0 0 61 60" fill="none" xmlns="http://www.w3.org/2000/svg">
  <style>
    path {
      fill: #fff;
    }
    <!-- @media (prefers-color-scheme: dark) {
      path {
        fill: #fff;
      }
    } -->
  </style>
  <path
    d="M34.1439 0H26.8868C26.0828 0 25.4411 0.670396 25.4763 1.47358L26.4953 24.7223L2.97617 17.4265C2.15221 17.1709 1.29371 17.7076 1.16254 18.5602L0.199735 24.8192C0.0871758 25.5509 0.558976 26.2453 1.28071 26.4102L24.1478 31.6334L7.33486 53.7662C6.81612 54.4491 7.02102 55.433 7.76926 55.852L14.008 59.3457C14.6631 59.7125 15.4906 59.5025 15.8915 58.8677L30.353 35.9672L44.8261 58.8863C45.2222 59.5135 46.036 59.7272 46.6891 59.3755L53.2339 55.8514C54.0036 55.437 54.2155 54.4298 53.678 53.7404L36.4433 31.6334L59.6723 26.4283C60.4365 26.2571 60.9153 25.4964 60.7392 24.7333L59.2838 18.4266C59.0989 17.6253 58.271 17.151 57.4863 17.3968L34.0958 24.7223L35.5529 1.50017C35.6039 0.687299 34.9584 0 34.1439 0Z"
    fill="white"
  >
  </path>
</svg>
