<svg viewBox="0 0 160 160" fill="none" xmlns="http://www.w3.org/2000/svg">
    <rect width="160" height="160" rx="80" fill="url(#paint0_linear_2359_5205)"></rect>
    <path
      d="M85.1206 37.5H74.8396C73.7006 37.5 72.7916 38.4497 72.8415 39.5876L74.285 72.5233L40.9662 62.1876C39.799 61.8255 38.5828 62.5857 38.3969 63.7937L37.033 72.6606C36.8735 73.6972 37.5419 74.6809 38.5644 74.9144L70.9594 82.3139L47.1411 113.669C46.4062 114.636 46.6965 116.03 47.7564 116.624L56.5947 121.573C57.5227 122.093 58.6951 121.795 59.263 120.896L79.7501 88.4535L100.254 120.922C100.815 121.811 101.968 122.114 102.893 121.615L112.165 116.623C113.255 116.036 113.555 114.609 112.794 113.632L88.378 82.3139L121.286 74.9401C122.368 74.6975 123.047 73.6199 122.797 72.5388L120.735 63.6043C120.473 62.4692 119.301 61.7973 118.189 62.1454L85.0524 72.5233L87.1166 39.6252C87.1889 38.4737 86.2744 37.5 85.1206 37.5Z"
      fill="white"
    >
    </path>
    <defs>
      <linearGradient id="paint0_linear_2359_5205" x1="12.8" y1="-6.02631e-06" x2="175.197" y2="56.6889" gradientUnits="userSpaceOnUse">
        <stop stop-color="#464646"></stop>
        <stop offset="0.699109" stop-color="#0A0A0A"></stop>
        <stop offset="1" stop-color="#464646"></stop>
      </linearGradient>
    </defs>
  </svg>
